<svg width="26" height="26" viewBox="0 0 26 26" fill="none" xmlns="http://www.w3.org/2000/svg">
<path d="M8.45002 2.16675H17.55C21.0167 2.16675 23.8334 4.98341 23.8334 8.45008V17.5501C23.8334 19.2165 23.1714 20.8147 21.993 21.9931C20.8147 23.1714 19.2165 23.8334 17.55 23.8334H8.45002C4.98335 23.8334 2.16669 21.0168 2.16669 17.5501V8.45008C2.16669 6.78364 2.82868 5.18545 4.00703 4.00709C5.18539 2.82874 6.78358 2.16675 8.45002 2.16675ZM8.23335 4.33341C7.19901 4.33341 6.20703 4.74431 5.47564 5.4757C4.74425 6.20709 4.33335 7.19907 4.33335 8.23341V17.7667C4.33335 19.9226 6.07752 21.6667 8.23335 21.6667H17.7667C18.801 21.6667 19.793 21.2559 20.5244 20.5245C21.2558 19.7931 21.6667 18.8011 21.6667 17.7667V8.23341C21.6667 6.07758 19.9225 4.33341 17.7667 4.33341H8.23335ZM18.6875 5.95841C19.0467 5.95841 19.3911 6.10109 19.6451 6.35504C19.899 6.609 20.0417 6.95343 20.0417 7.31258C20.0417 7.67173 19.899 8.01617 19.6451 8.27012C19.3911 8.52408 19.0467 8.66675 18.6875 8.66675C18.3284 8.66675 17.9839 8.52408 17.73 8.27012C17.476 8.01617 17.3334 7.67173 17.3334 7.31258C17.3334 6.95343 17.476 6.609 17.73 6.35504C17.9839 6.10109 18.3284 5.95841 18.6875 5.95841ZM13 7.58342C14.4366 7.58342 15.8144 8.1541 16.8302 9.16992C17.846 10.1857 18.4167 11.5635 18.4167 13.0001C18.4167 14.4367 17.846 15.8144 16.8302 16.8302C15.8144 17.8461 14.4366 18.4167 13 18.4167C11.5634 18.4167 10.1857 17.8461 9.16986 16.8302C8.15404 15.8144 7.58335 14.4367 7.58335 13.0001C7.58335 11.5635 8.15404 10.1857 9.16986 9.16992C10.1857 8.1541 11.5634 7.58342 13 7.58342ZM13 9.75008C12.1381 9.75008 11.3114 10.0925 10.7019 10.702C10.0924 11.3115 9.75002 12.1381 9.75002 13.0001C9.75002 13.862 10.0924 14.6887 10.7019 15.2982C11.3114 15.9077 12.1381 16.2501 13 16.2501C13.862 16.2501 14.6886 15.9077 15.2981 15.2982C15.9076 14.6887 16.25 13.862 16.25 13.0001C16.25 12.1381 15.9076 11.3115 15.2981 10.702C14.6886 10.0925 13.862 9.75008 13 9.75008Z" fill="#222222"/>
</svg>
