<svg width="29" height="31" viewBox="0 0 29 31" fill="none" xmlns="http://www.w3.org/2000/svg">
<g filter="url(#filter0_d_16_212)">
<path d="M8.51833 5.41677C8.51804 5.99141 8.2895 6.5424 7.88296 6.94852C7.47643 7.35465 6.92522 7.58264 6.35058 7.58236C5.77595 7.58207 5.22496 7.35352 4.81883 6.94699C4.41271 6.54046 4.18471 5.98924 4.185 5.41461C4.18529 4.83997 4.41383 4.28899 4.82037 3.88286C5.2269 3.47673 5.77811 3.24874 6.35275 3.24902C6.92738 3.24931 7.47837 3.47786 7.8845 3.88439C8.29062 4.29092 8.51862 4.84214 8.51833 5.41677ZM8.58333 9.18677H4.25V22.7501H8.58333V9.18677ZM15.43 9.18677H11.1183V22.7501H15.3867V15.6326C15.3867 11.6676 20.5542 11.2993 20.5542 15.6326V22.7501H24.8333V14.1593C24.8333 7.47511 17.185 7.72427 15.3867 11.0068L15.43 9.18677Z" fill="#222222"/>
</g>
<defs>
<filter id="filter0_d_16_212" x="-3" y="0" width="34" height="34" filterUnits="userSpaceOnUse" color-interpolation-filters="sRGB">
<feFlood flood-opacity="0" result="BackgroundImageFix"/>
<feColorMatrix in="SourceAlpha" type="matrix" values="0 0 0 0 0 0 0 0 0 0 0 0 0 0 0 0 0 0 127 0" result="hardAlpha"/>
<feOffset dy="4"/>
<feGaussianBlur stdDeviation="2"/>
<feComposite in2="hardAlpha" operator="out"/>
<feColorMatrix type="matrix" values="0 0 0 0 0 0 0 0 0 0 0 0 0 0 0 0 0 0 0.25 0"/>
<feBlend mode="normal" in2="BackgroundImageFix" result="effect1_dropShadow_16_212"/>
<feBlend mode="normal" in="SourceGraphic" in2="effect1_dropShadow_16_212" result="shape"/>
</filter>
</defs>
</svg>
