<svg width="23" height="20" viewBox="0 0 23 20" fill="none" xmlns="http://www.w3.org/2000/svg">
<path fill-rule="evenodd" clip-rule="evenodd" d="M20.4251 0.799129C20.6928 0.686452 20.9858 0.647591 21.2737 0.686589C21.5615 0.725587 21.8336 0.84102 22.0617 1.02087C22.2898 1.20072 22.4655 1.43842 22.5705 1.70922C22.6755 1.98002 22.7061 2.27402 22.6589 2.56063L20.2019 17.464C19.9636 18.9016 18.3863 19.726 17.0678 19.01C15.965 18.4109 14.327 17.4879 12.8537 16.5248C12.117 16.0427 9.86043 14.499 10.1378 13.4005C10.3761 12.4612 14.1678 8.93171 16.3344 6.8333C17.1848 6.00888 16.797 5.5333 15.7928 6.29163C13.2978 8.17446 9.29493 11.0377 7.97109 11.8437C6.80326 12.5544 6.19443 12.6757 5.46643 12.5544C4.13826 12.3334 2.90651 11.991 1.90118 11.574C0.542678 11.0106 0.608761 9.14296 1.90009 8.59913L20.4251 0.799129Z" fill="#222222"/>
</svg>
